<svg id="Layer_1" data-name="Layer 1" xmlns="http://www.w3.org/2000/svg" viewBox="0 0 1161.8629 229.2"><path d="M275.8,272.2a98.6,98.6,0,1,1,0-157.6V95.4a114.6191,114.6191,0,0,0-173.7,98.2c0,63.2,51.4,114.6,114.5,114.6a113.54,113.54,0,0,0,59.2-16.5Z" transform="translate(-102.1 -79)" style="fill:#0097a7"/><path d="M122.3,193.2h0a94.275,94.275,0,0,1,94.3-94.3h0a94.2324,94.2324,0,0,1,94.3,94.3h0a94.275,94.275,0,0,1-94.3,94.3h0A94.275,94.275,0,0,1,122.3,193.2Z" transform="translate(-102.1 -79)" style="fill:none;stroke:#ffab40;stroke-linejoin:round;stroke-width:3px"/><path d="M208,122.4h0c11.6,0,21,9.1,21,20.4h0a20.1307,20.1307,0,0,1-6.1,14.4,21.3935,21.3935,0,0,1-14.8,6h0c-11.6,0-21-9.1-21-20.4h0C187,131.5,196.4,122.4,208,122.4Z" transform="translate(-102.1 -79)" style="fill:#ffe4c2;fill-rule:evenodd"/><path d="M208,122.4h0c11.6,0,21,9.1,21,20.4h0a20.1307,20.1307,0,0,1-6.1,14.4,21.3935,21.3935,0,0,1-14.8,6h0c-11.6,0-21-9.1-21-20.4h0C187,131.5,196.4,122.4,208,122.4Z" transform="translate(-102.1 -79)" style="fill:none;stroke:#0097a7;stroke-linejoin:round;stroke-width:3px"/><path d="M254.5,199.4h0c11.6,0,21,9.1,21,20.4h0a20.1307,20.1307,0,0,1-6.1,14.4,21.3935,21.3935,0,0,1-14.8,6h0c-11.6,0-21-9.1-21-20.4h0C233.6,208.6,243,199.4,254.5,199.4Z" transform="translate(-102.1 -79)" style="fill:#ffe4c2;fill-rule:evenodd"/><path d="M254.5,199.4h0c11.6,0,21,9.1,21,20.4h0a20.1307,20.1307,0,0,1-6.1,14.4,21.3935,21.3935,0,0,1-14.8,6h0c-11.6,0-21-9.1-21-20.4h0C233.6,208.6,243,199.4,254.5,199.4Z" transform="translate(-102.1 -79)" style="fill:none;stroke:#0097a7;stroke-linejoin:round;stroke-width:3px"/><path d="M163.3,199.4h0c11.6,0,21,9.1,21,20.4h0a20.1307,20.1307,0,0,1-6.1,14.4,21.3935,21.3935,0,0,1-14.8,6h0c-11.6,0-21-9.1-21-20.4h0C142.3,208.6,151.7,199.4,163.3,199.4Z" transform="translate(-102.1 -79)" style="fill:#fff;fill-rule:evenodd"/><path d="M163.3,199.4h0c11.6,0,21,9.1,21,20.4h0a20.1307,20.1307,0,0,1-6.1,14.4,21.3935,21.3935,0,0,1-14.8,6h0c-11.6,0-21-9.1-21-20.4h0C142.3,208.6,151.7,199.4,163.3,199.4Z" transform="translate(-102.1 -79)" style="fill:none;stroke:#0097a7;stroke-linejoin:round;stroke-width:3px"/><path d="M179,83.6h85.7V272.7H179Z" transform="translate(-102.1 -79)" style="fill-opacity:0;fill-rule:evenodd"/><path d="M197.3,227V133.6h19.9v75.9h39.5V227Z" transform="translate(-102.1 -79)" style="fill:#0097a7"/><path d="M479.0964,271.0019c-22.4828,0-41.2184-7.3382-56.0507-22.17C408.0572,233.999,400.5629,215.1072,400.5629,192s7.4943-41.999,22.4828-56.8314,33.7241-22.1705,56.0507-22.1705c24.2,0,43.56,10.1485,57.9243,30.2893l-16.0814,8.8994a51.8937,51.8937,0,0,0-17.7988-15.9253,47.7985,47.7985,0,0,0-24.2-6.2452c-17.0182,0-30.9138,5.933-42.1552,17.6427C425.7,159.3688,420.0792,174.2012,420.0792,192c0,17.955,5.4646,32.9435,16.55,44.4971,11.0853,11.71,25.137,17.4866,42.3113,17.4866a48.211,48.211,0,0,0,24.2-6.2452,50.6274,50.6274,0,0,0,17.7988-16.0814l16.2375,8.8994C522.5006,261.01,502.9843,271.0019,479.0964,271.0019Zm81.6561-2.81V115.4962h17.1743V268.1915Zm101.4846,2.81c-16.7059,0-30.1331-5.4646-40.5938-16.2376S606.03,229.94,606.03,212.9214c0-16.3936,5.1522-30.1331,15.613-41.2183s23.42-16.706,38.8764-16.706c15.9253,0,28.728,5.4646,38.408,16.55,9.8362,10.9291,14.6763,25.293,14.6763,42.78v4.3717H624.1414q.9368,16.862,12.1782,27.635c7.4942,7.0259,16.7059,10.6169,27.635,10.6169,13.4272,0,24.8248-4.6839,34.0364-14.0517l8.2749,11.2413C694.8683,265.3812,680.3482,271.0019,662.2371,271.0019Zm34.3487-64.95a36.695,36.695,0,0,0-10.1485-26.0737c-6.7136-7.182-15.4569-10.773-26.386-10.773-10.3046,0-18.7357,3.591-25.6054,10.773s-10.3046,15.9252-10.6168,26.0737Zm113.8188,62.14V255.545c-9.3678,10.3046-21.5459,15.3007-36.6906,15.3007-11.0852,0-20.453-3.4348-27.7911-10.6168a34.6637,34.6637,0,0,1-10.9291-26.0738c0-10.6168,3.5909-19.36,10.9291-26.23,7.1819-6.87,16.55-10.1485,27.7911-10.1485,15.9253,0,28.1035,4.9961,36.6906,15.1446V192.9367q0-11.2413-7.9626-17.33c-5.3084-4.0594-12.022-6.0891-19.9846-6.0891-12.9588,0-24.2,5.1523-33.88,15.3008l-7.9626-11.8659c11.71-12.1782,26.5421-18.2673,44.1848-18.2673,13.5834,0,24.2,3.2788,31.5383,9.8363C823.8319,171.0785,827.579,180.29,827.579,192v76.0354H810.4046Zm-30.4454-9.5239c13.5834,0,23.7318-4.5278,30.4454-13.7395V224.1628c-6.7136-9.2117-16.862-13.7395-30.4454-13.7395-8.1188,0-14.6762,2.1858-19.6723,6.7136s-7.4943,10.3046-7.4943,17.4866a22.35,22.35,0,0,0,7.4943,17.3305C765.2831,256.3256,771.8405,258.6676,779.9592,258.6676Zm156.5987,9.5239V195.9032c0-9.8362-2.1859-16.55-6.7136-20.1408s-10.4607-5.4645-17.955-5.4645a38.6957,38.6957,0,0,0-18.8917,5.1523,39.5827,39.5827,0,0,0-13.8956,12.022v80.8755H861.9277v-110.54H879.102v15.9252a58.45,58.45,0,0,1,17.4866-13.5833,48.5459,48.5459,0,0,1,21.8582-5.3084c23.5756,0,35.2854,11.8659,35.2854,35.7538v77.5967Zm51.523,0V115.4962h17.1743V268.1915Zm120.6886,0V255.545c-9.3678,10.3046-21.546,15.3007-36.6906,15.3007-11.0852,0-20.453-3.4348-27.7912-10.6168a34.6641,34.6641,0,0,1-10.9291-26.0738c0-10.6168,3.591-19.36,10.9291-26.23,7.182-6.87,16.55-10.1485,27.7912-10.1485,15.9253,0,28.1034,4.9961,36.6906,15.1446V192.9367q0-11.2413-7.9626-17.33c-5.3085-4.0594-12.0221-6.0891-19.9847-6.0891-12.9588,0-24.2,5.1523-33.88,15.3008l-7.9626-11.8659c11.71-12.1782,26.5421-18.2673,44.1848-18.2673,13.5833,0,24.2,3.2788,31.5383,9.8363,7.4942,6.5574,11.2414,15.7691,11.2414,27.4789v76.0354H1108.77Zm-30.4454-9.5239c13.5833,0,23.7318-4.5278,30.4454-13.7395V224.1628c-6.7136-9.2117-16.8621-13.7395-30.4454-13.7395-8.1188,0-14.6763,2.1858-19.6724,6.7136s-7.4942,10.3046-7.4942,17.4866a22.35,22.35,0,0,0,7.4942,17.3305C1063.6478,256.3256,1070.2053,258.6676,1078.3241,258.6676Zm99.1427-20.4531a37.3573,37.3573,0,0,0,13.5833,12.3343,40.1773,40.1773,0,0,0,19.36,4.9962c10.773,0,19.5163-3.9033,26.0737-11.71s9.68-18.1111,9.68-30.7576c0-12.8027-3.2787-23.1073-9.68-31.07-6.4013-7.8066-15.1446-11.866-26.0737-11.866a37.2928,37.2928,0,0,0-19.36,5.3085q-9.1336,5.1522-13.5833,12.6465Zm-17.1744,29.977V115.4962h17.1744v58.8611c9.5239-12.9589,21.8582-19.5163,37.3151-19.5163,14.6763,0,26.5421,5.3084,35.5977,16.0814q13.5832,15.9253,13.5833,42.1552c0,17.6427-4.5278,31.8505-13.5833,42.3112s-20.9215,15.6131-35.5977,15.6131a43.1576,43.1576,0,0,1-21.39-5.4646,49.08,49.08,0,0,1-15.9253-13.8956v16.55Z" transform="translate(-102.1 -79)" style="fill:#0097a7"/></svg>