<svg width="122" height="24" viewBox="0 0 122 24" fill="none" xmlns="http://www.w3.org/2000/svg">
<g clip-path="url(#clip0_695_6435)">
<path d="M18.1885 20.2305C16.6552 21.3837 14.8309 22.0869 12.9202 22.2611C11.0095 22.4354 9.08811 22.0738 7.3715 21.2169C5.65488 20.3601 4.21098 19.0418 3.20176 17.4101C2.19255 15.7784 1.65796 13.8978 1.65796 11.9792C1.65796 10.0606 2.19255 8.17996 3.20176 6.54825C4.21098 4.91654 5.65488 3.59832 7.3715 2.74146C9.08811 1.8846 11.0095 1.523 12.9202 1.69724C14.8309 1.87148 16.6552 2.57465 18.1885 3.72787V1.7174C16.3676 0.622126 14.2887 0.0298913 12.164 0.00121533C10.0393 -0.0274606 7.94508 0.50845 6.09534 1.55419C4.2456 2.59992 2.70664 4.11799 1.63574 5.95327C0.564825 7.78855 0.000353479 9.87525 0 12.0001C-1.04404e-09 18.6179 5.3822 24.0001 11.9895 24.0001C14.1754 24.005 16.3203 23.4072 18.1885 22.2724V20.2305Z" fill="#0097A7"/>
<path fill-rule="evenodd" clip-rule="evenodd" d="M11.089 4.54463C12.3037 4.54463 13.288 5.49751 13.288 6.68075C13.2875 6.96199 13.2307 7.24028 13.121 7.49924C13.0113 7.7582 12.8509 7.99259 12.6492 8.18861C12.2331 8.59022 11.6778 8.81534 11.0995 8.81688C9.88482 8.81688 8.90052 7.864 8.90052 6.68075C8.89005 5.49751 9.87435 4.54463 11.089 4.54463Z" fill="#FFE4C2"/>
<path fill-rule="evenodd" clip-rule="evenodd" d="M15.9581 12.6075C17.1728 12.6075 18.1571 13.5603 18.1571 14.7436C18.1566 15.0248 18.0998 15.3031 17.9901 15.5621C17.8804 15.821 17.72 16.0554 17.5183 16.2514C17.1022 16.653 16.5469 16.8782 15.9686 16.8797C14.7539 16.8797 13.7696 15.9268 13.7696 14.7436C13.7696 13.5708 14.7539 12.6075 15.9581 12.6075Z" fill="#FFE4C2"/>
<path fill-rule="evenodd" clip-rule="evenodd" d="M6.40838 12.6075C7.62304 12.6075 8.60733 13.5603 8.60733 14.7436C8.60683 15.0248 8.55006 15.3031 8.44037 15.5621C8.33067 15.821 8.17026 16.0554 7.96859 16.2514C7.55247 16.653 6.99716 16.8782 6.41885 16.8797C5.20419 16.8797 4.2199 15.9268 4.2199 14.7436C4.20942 13.5708 5.19372 12.6075 6.40838 12.6075Z" fill="white"/>
<path d="M9.96859 15.4975V5.7174H12.0524V13.665H16.1885V15.4975H9.96859Z" fill="#0097A7"/>
<path d="M39.4761 20.105C37.1218 20.105 35.16 19.3366 33.6069 17.7836C32.0374 16.2304 31.2527 14.2522 31.2527 11.8326C31.2527 9.41298 32.0374 7.43478 33.6069 5.88165C35.1764 4.32852 37.1382 3.56014 39.4761 3.56014C42.0101 3.56014 44.0373 4.62281 45.5414 6.73179L43.8575 7.66366C43.3744 6.97046 42.7362 6.39949 41.9938 5.99609C41.222 5.55723 40.3475 5.33153 39.4597 5.34215C37.6777 5.34215 36.2227 5.9634 35.0456 7.18955C33.8848 8.41571 33.2963 9.96884 33.2963 11.8326C33.2963 13.7127 33.8685 15.2822 35.0292 16.492C36.19 17.7181 37.6614 18.323 39.4597 18.323C40.3472 18.3316 41.2213 18.106 41.9938 17.6691C42.7409 17.2652 43.3801 16.6877 43.8575 15.9852L45.5578 16.917C44.021 19.0588 41.9774 20.105 39.4761 20.105ZM48.0264 19.8108V3.82172H49.8248V19.8108L48.0264 19.8108ZM58.6531 20.105C56.9038 20.105 55.4978 19.5328 54.4024 18.4048C53.3071 17.2767 52.7675 15.8054 52.7675 14.0233C52.7675 12.3067 53.307 10.868 54.4024 9.70726C55.4978 8.5465 56.8548 7.95794 58.4732 7.95794C60.1408 7.95794 61.4814 8.53015 62.495 9.69092C63.525 10.8353 64.0318 12.3394 64.0318 14.1705V14.6283H54.664C54.7294 15.8054 55.1545 16.7699 55.9392 17.522C56.724 18.2577 57.6885 18.6337 58.8329 18.6337C60.2389 18.6337 61.4324 18.1432 62.397 17.1623L63.2635 18.3394C62.07 19.5165 60.5496 20.105 58.6531 20.105ZM62.2498 13.304C62.2701 12.2893 61.8881 11.3078 61.1872 10.5738C60.4842 9.82172 59.5686 9.4457 58.4242 9.4457C57.3452 9.4457 56.4624 9.82172 55.743 10.5738C55.0237 11.3258 54.664 12.2413 54.6313 13.304H62.2498ZM74.168 19.8108V18.4865C73.1871 19.5655 71.9119 20.0887 70.3261 20.0887C69.1653 20.0887 68.1844 19.729 67.416 18.977C67.0441 18.6278 66.75 18.2043 66.5528 17.7338C66.3556 17.2634 66.2598 16.7567 66.2716 16.2467C66.2716 15.135 66.6476 14.2195 67.416 13.5001C68.168 12.7808 69.149 12.4375 70.3261 12.4375C71.9936 12.4375 73.2689 12.9606 74.168 14.0233V11.9307C74.168 11.1459 73.8901 10.5411 73.3342 10.116C72.7784 9.69094 72.0754 9.47841 71.2416 9.47841C69.8847 9.47841 68.7076 10.0179 67.694 11.0806L66.8602 9.83808C68.0864 8.56288 69.6395 7.92528 71.4869 7.92528C72.9092 7.92528 74.0209 8.26861 74.7893 8.95526C75.574 9.64185 75.9664 10.6064 75.9664 11.8326V19.7944H74.168V19.8108ZM70.98 18.8135C72.4024 18.8135 73.465 18.3394 74.168 17.3748V15.2004C73.465 14.2358 72.4024 13.7617 70.98 13.7617C70.1299 13.7617 69.4433 13.9906 68.9201 14.4647C68.397 14.9388 68.1354 15.5437 68.1354 16.2958C68.1258 16.6372 68.1911 16.9766 68.3267 17.2901C68.4622 17.6036 68.6648 17.8836 68.9201 18.1105C69.4433 18.5683 70.1299 18.8135 70.98 18.8135ZM87.3778 19.8108V12.2413C87.3778 11.2113 87.1489 10.5083 86.6748 10.1323C86.2007 9.75631 85.5794 9.56011 84.7947 9.56011C84.1 9.56738 83.4187 9.75316 82.8165 10.0996C82.2395 10.3993 81.741 10.8305 81.3615 11.3585V19.8271H79.5631V8.25224H81.3615V9.9198C81.8756 9.33335 82.4971 8.85058 83.1925 8.49747C83.9014 8.13555 84.6854 7.94515 85.4813 7.94161C87.95 7.94161 89.1762 9.18411 89.1762 11.6855V19.8108L87.3778 19.8108ZM92.7729 19.8108V3.82172H94.5712V19.8108L92.7729 19.8108ZM105.41 19.8108V18.4865C104.43 19.5655 103.154 20.0887 101.568 20.0887C100.408 20.0887 99.4268 19.729 98.6584 18.977C98.2865 18.6278 97.9924 18.2043 97.7952 17.7338C97.598 17.2634 97.5022 16.7567 97.514 16.2467C97.514 15.135 97.89 14.2195 98.6584 13.5001C99.4104 12.7808 100.391 12.4375 101.568 12.4375C103.236 12.4375 104.511 12.9606 105.41 14.0233V11.9307C105.41 11.1459 105.132 10.5411 104.577 10.116C104.021 9.69094 103.318 9.47841 102.484 9.47841C101.127 9.47841 99.95 10.0179 98.9364 11.0806L98.1026 9.83808C99.3288 8.56288 100.882 7.92528 102.729 7.92528C104.152 7.92528 105.263 8.26861 106.032 8.95526C106.816 9.64189 107.209 10.6065 107.209 11.8326V19.7944H105.41L105.41 19.8108ZM102.222 18.8135C103.645 18.8135 104.707 18.3394 105.41 17.3748V15.2004C104.707 14.2358 103.645 13.7617 102.222 13.7617C101.372 13.7617 100.686 13.9906 100.162 14.4647C99.6393 14.9388 99.3778 15.5437 99.3778 16.2958C99.3682 16.6372 99.4335 16.9766 99.5691 17.2901C99.7046 17.6036 99.9072 17.8836 100.162 18.1105C100.686 18.5683 101.372 18.8135 102.222 18.8135ZM112.604 16.6718C112.963 17.2139 113.452 17.6578 114.026 17.9634C114.647 18.3058 115.344 18.4858 116.053 18.4866C117.181 18.4866 118.097 18.0778 118.784 17.2604C119.47 16.4429 119.797 15.3639 119.797 14.0397C119.797 12.6991 119.454 11.6201 118.784 10.7863C118.113 9.96884 117.198 9.54377 116.053 9.54377C115.34 9.54028 114.638 9.73253 114.026 10.0996C113.389 10.4593 112.914 10.9007 112.604 11.4239V16.6718ZM110.805 19.8108V3.82172H112.604V9.98518C113.601 8.62823 114.893 7.94159 116.511 7.94159C118.048 7.94159 119.29 8.49744 120.239 9.62551C121.187 10.7372 121.661 12.2086 121.661 14.0397C121.661 15.8871 121.187 17.3748 120.239 18.4702C119.29 19.5655 118.048 20.105 116.511 20.105C115.728 20.1117 114.956 19.9145 114.271 19.5328C113.616 19.1747 113.047 18.6782 112.604 18.0778V19.8108L110.805 19.8108Z" fill="#0097A7"/>
</g>
<defs>
<clipPath id="clip0_695_6435">
<rect width="121.661" height="24" fill="white"/>
</clipPath>
</defs>
</svg>
